<?xml version="1.0" encoding="UTF-8"?>
<svg xmlns="http://www.w3.org/2000/svg"
     xmlns:xlink="http://www.w3.org/1999/xlink"
     version="1.2"
     width="540mm" height="288mm" viewBox="0 0 540 288"
     stroke="none"
     fill="#000000"
     stroke-width="0.3"
     font-size="3.88"
>
<g stroke-width="2" stroke="#000000" id="img-aeee7956-1">
  <g stroke-width="0" font-family="Helvetica-Bold" font-size="7.06" id="img-aeee7956-2">
    <text x="24" y="264" text-anchor="end" dy="0.35em">CLK</text>
    <text x="24" y="24" text-anchor="end" dy="0.35em">CLR</text>
  </g>
  <path fill="none" d="M298.5,70.5 L 298.5 48 192 48 192 180 192 180"/>
  <path fill="none" d="M313.5,70.5 L 313.5 36 142.5 36 142.5 58.5"/>
  <path fill="none" d="M328.5,70.5 L 328.5 36 487.5 36 487.5 70.5"/>
  <path fill="none" d="M343.5,190.5 L 343.5 168 204 168 204 60 268.5 60 268.5 70.5"/>
  <path fill="none" d="M298.5,190.5 L 298.5 115.5"/>
  <g stroke="#800080" id="img-aeee7956-3">
    <path fill="none" d="M283.5,190.5 L 283.5 156 117 156"/>
    <path fill="none" d="M117,190.5 L 117 156 52.5 156 52.5 24"/>
    <path fill="none" d="M67.5,58.5 L 67.5 24"/>
    <path fill="none" d="M30,24 L 382.5 24 382.5 70.5"/>
    <g stroke-width="0" fill="#800080" id="img-aeee7956-4">
      <use xlink:href="#img-aeee7956-5" x="117" y="156"/>
    </g>
  </g>
  <g stroke="#008B8B" id="img-aeee7956-6">
    <path fill="none" d="M117,235.5 L 117 264"/>
    <path fill="none" d="M67.5,103.5 L 67.5 264"/>
    <path fill="none" d="M313.5,190.5 L 313.5 180 246 180 246 264"/>
    <path fill="none" d="M30,264 L 382.5 264 382.5 115.5"/>
  </g>
  <g stroke-width="0" font-family="Helvetica-Bold" font-size="7.06" id="img-aeee7956-7">
    <text x="472.5" y="54" text-anchor="middle">B5</text>
    <text x="457.5" y="54" text-anchor="middle">B4</text>
    <text x="427.5" y="54" text-anchor="middle">B3</text>
    <text x="412.5" y="54" text-anchor="middle">B2</text>
    <text x="397.5" y="54" text-anchor="middle">B1</text>
  </g>
  <g stroke="#FFA500" id="img-aeee7956-8">
    <path fill="none" d="M472.5,70.5 L 472.5 60"/>
    <path fill="none" d="M457.5,70.5 L 457.5 60"/>
    <path fill="none" d="M427.5,70.5 L 427.5 60"/>
    <path fill="none" d="M412.5,70.5 L 412.5 60"/>
    <path fill="none" d="M397.5,70.5 L 397.5 60"/>
    <g stroke-width="0" fill="#FFA500" id="img-aeee7956-9">
      <use xlink:href="#img-aeee7956-10" x="472.5" y="60"/>
      <use xlink:href="#img-aeee7956-11" x="457.5" y="60"/>
      <use xlink:href="#img-aeee7956-12" x="427.5" y="60"/>
      <use xlink:href="#img-aeee7956-13" x="412.5" y="60"/>
      <use xlink:href="#img-aeee7956-14" x="397.5" y="60"/>
    </g>
  </g>
  <g stroke-width="0" font-family="Helvetica-Bold" font-size="7.06" id="img-aeee7956-15">
    <text x="222" y="252" text-anchor="middle" dy="0.6em">SET</text>
    <text x="172.5" y="120" text-anchor="middle" dy="0.6em">SET</text>
    <text x="192" y="252" text-anchor="middle" dy="0.6em">b'4</text>
    <text x="162" y="252" text-anchor="middle" dy="0.6em">b'3</text>
    <text x="147" y="252" text-anchor="middle" dy="0.6em">b'2</text>
    <text x="132" y="252" text-anchor="middle" dy="0.6em">b'1</text>
    <text x="198" y="180" dy="0.35em">b'4</text>
    <text x="162" y="174" text-anchor="middle">b'3</text>
    <text x="147" y="174" text-anchor="middle">b'2</text>
    <text x="132" y="174" text-anchor="middle">b'1</text>
    <text x="142.5" y="120" text-anchor="middle" dy="0.6em">b4</text>
    <text x="112.5" y="120" text-anchor="middle" dy="0.6em">b3</text>
    <text x="97.5" y="120" text-anchor="middle" dy="0.6em">b2</text>
    <text x="82.5" y="120" text-anchor="middle" dy="0.6em">b1</text>
    <text x="148.5" y="48" dy="0.35em">b4</text>
    <text x="112.5" y="42" text-anchor="middle">b3</text>
    <text x="97.5" y="42" text-anchor="middle">b2</text>
    <text x="82.5" y="42" text-anchor="middle">b1</text>
  </g>
  <g stroke="#FFA500" id="img-aeee7956-16">
    <path fill="none" d="M192,190.5 L 192 180"/>
    <path fill="none" d="M142.5,58.5 L 142.5 48"/>
    <path fill="none" d="M162,190.5 L 162 180"/>
    <path fill="none" d="M112.5,58.5 L 112.5 48"/>
    <path fill="none" d="M147,190.5 L 147 180"/>
    <path fill="none" d="M97.5,58.5 L 97.5 48"/>
    <path fill="none" d="M132,190.5 L 132 180"/>
    <path fill="none" d="M82.5,58.5 L 82.5 48"/>
    <g stroke-width="0" fill="#FFA500" id="img-aeee7956-17">
      <use xlink:href="#img-aeee7956-18" x="192" y="180"/>
      <use xlink:href="#img-aeee7956-19" x="142.5" y="48"/>
      <use xlink:href="#img-aeee7956-20" x="162" y="180"/>
      <use xlink:href="#img-aeee7956-21" x="112.5" y="48"/>
      <use xlink:href="#img-aeee7956-22" x="147" y="180"/>
      <use xlink:href="#img-aeee7956-23" x="97.5" y="48"/>
      <use xlink:href="#img-aeee7956-24" x="132" y="180"/>
      <use xlink:href="#img-aeee7956-25" x="82.5" y="48"/>
    </g>
  </g>
  <g stroke="#006400" id="img-aeee7956-26">
    <path fill="none" d="M222,235.5 L 222 246"/>
    <path fill="none" d="M172.5,103.5 L 172.5 114"/>
    <path fill="none" d="M192,235.5 L 192 246"/>
    <path fill="none" d="M142.5,103.5 L 142.5 114"/>
    <path fill="none" d="M162,235.5 L 162 246"/>
    <path fill="none" d="M112.5,103.5 L 112.5 114"/>
    <path fill="none" d="M147,235.5 L 147 246"/>
    <path fill="none" d="M97.5,103.5 L 97.5 114"/>
    <path fill="none" d="M132,235.5 L 132 246"/>
    <path fill="none" d="M82.5,103.5 L 82.5 114"/>
    <g stroke-width="0" fill="#006400" id="img-aeee7956-27">
      <use xlink:href="#img-aeee7956-28" x="222" y="246"/>
      <use xlink:href="#img-aeee7956-29" x="172.5" y="114"/>
      <use xlink:href="#img-aeee7956-30" x="192" y="246"/>
      <use xlink:href="#img-aeee7956-31" x="142.5" y="114"/>
      <use xlink:href="#img-aeee7956-32" x="162" y="246"/>
      <use xlink:href="#img-aeee7956-33" x="112.5" y="114"/>
      <use xlink:href="#img-aeee7956-34" x="147" y="246"/>
      <use xlink:href="#img-aeee7956-35" x="97.5" y="114"/>
      <use xlink:href="#img-aeee7956-36" x="132" y="246"/>
      <use xlink:href="#img-aeee7956-37" x="82.5" y="114"/>
    </g>
  </g>
  <g stroke="#00008B" id="img-aeee7956-38">
    <path fill="none" d="M487.5,115.5 L 487.5 144"/>
    <path fill="none" d="M222,190.5 L 222 144"/>
    <path fill="none" d="M172.5,58.5 L 172.5 12"/>
    <path fill="none" d="M328.5,115.5 L 328.5 126 313.5 126"/>
    <path fill="none" d="M313.5,115.5 L 313.5 144"/>
    <path fill="none" d="M358.5,235.5 L 358.5 282"/>
    <path fill="none" d="M283.5,70.5 L 283.5 12"/>
    <path fill="none" d="M442.5,70.5 L 442.5 12"/>
    <path fill="none" d="M177,190.5 L 177 144"/>
    <path fill="none" d="M127.5,58.5 L 127.5 12"/>
    <path fill="none" d="M0,282 L 540 282"/>
    <path fill="none" d="M0,144 L 540 144"/>
    <path fill="none" d="M0,12 L 540 12"/>
    <g stroke-width="0" fill="#00008B" id="img-aeee7956-39">
      <use xlink:href="#img-aeee7956-40" x="487.5" y="144"/>
      <use xlink:href="#img-aeee7956-41" x="222" y="144"/>
      <use xlink:href="#img-aeee7956-42" x="172.5" y="12"/>
      <use xlink:href="#img-aeee7956-43" x="313.5" y="144"/>
      <use xlink:href="#img-aeee7956-44" x="313.5" y="126"/>
      <use xlink:href="#img-aeee7956-45" x="358.5" y="282"/>
      <use xlink:href="#img-aeee7956-46" x="283.5" y="12"/>
      <use xlink:href="#img-aeee7956-47" x="442.5" y="12"/>
      <use xlink:href="#img-aeee7956-48" x="177" y="144"/>
      <use xlink:href="#img-aeee7956-49" x="127.5" y="12"/>
    </g>
  </g>
  <g stroke="#8B0000" id="img-aeee7956-50">
    <path fill="none" d="M328.5,190.5 L 328.5 138"/>
    <path fill="none" d="M268.5,190.5 L 268.5 138"/>
    <path fill="none" d="M283.5,115.5 L 283.5 138"/>
    <path fill="none" d="M442.5,115.5 L 442.5 138"/>
    <path fill="none" d="M177,235.5 L 177 276"/>
    <path fill="none" d="M127.5,103.5 L 127.5 138"/>
    <path fill="none" d="M0,276 L 540 276"/>
    <path fill="none" d="M0,138 L 540 138"/>
    <path fill="none" d="M0,6 L 540 6"/>
    <g stroke-width="0" fill="#8B0000" id="img-aeee7956-51">
      <use xlink:href="#img-aeee7956-52" x="328.5" y="138"/>
      <use xlink:href="#img-aeee7956-53" x="268.5" y="138"/>
      <use xlink:href="#img-aeee7956-54" x="283.5" y="138"/>
      <use xlink:href="#img-aeee7956-55" x="442.5" y="138"/>
      <use xlink:href="#img-aeee7956-56" x="177" y="276"/>
      <use xlink:href="#img-aeee7956-57" x="127.5" y="138"/>
    </g>
  </g>
  <g fill="#000000" fill-opacity="0.000" id="img-aeee7956-58">
    <rect x="261" y="190.5" width="105" height="45"/>
  </g>
  <g fill="#000000" font-family="Helvetica-Bold" font-size="7.06" stroke-width="0" id="img-aeee7956-59">
    <text x="313.5" y="213" text-anchor="middle" dy="0.35em">7474</text>
  </g>
  <g fill="#000000" font-family="Helvetica-Bold" font-size="5.29" stroke-width="0" id="img-aeee7956-60">
    <text x="358.5" y="234" text-anchor="end" dy="0.35em" transform="rotate(90, 358.5, 234)">GND</text>
    <text x="343.5" y="234" text-anchor="end" dy="0.35em" transform="rotate(90, 343.5, 234)">~Q1</text>
    <text x="328.5" y="234" text-anchor="end" dy="0.35em" transform="rotate(90, 328.5, 234)">Q1</text>
    <text x="313.5" y="234" text-anchor="end" dy="0.35em" transform="rotate(90, 313.5, 234)">PRE1</text>
    <text x="298.5" y="234" text-anchor="end" dy="0.35em" transform="rotate(90, 298.5, 234)">CLK1</text>
    <text x="283.5" y="234" text-anchor="end" dy="0.35em" transform="rotate(90, 283.5, 234)">D1</text>
    <text x="268.5" y="234" text-anchor="end" dy="0.35em" transform="rotate(90, 268.5, 234)">CLR1</text>
    <text x="358.5" y="192" dy="0.35em" transform="rotate(90, 358.5, 192)">~Q2</text>
    <text x="343.5" y="192" dy="0.35em" transform="rotate(90, 343.5, 192)">Q2</text>
    <text x="328.5" y="192" dy="0.35em" transform="rotate(90, 328.5, 192)">PRE2</text>
    <text x="313.5" y="192" dy="0.35em" transform="rotate(90, 313.5, 192)">CLK2</text>
    <text x="298.5" y="192" dy="0.35em" transform="rotate(90, 298.5, 192)">D2</text>
    <text x="283.5" y="192" dy="0.35em" transform="rotate(90, 283.5, 192)">CLR2</text>
    <text x="268.5" y="192" dy="0.35em" transform="rotate(90, 268.5, 192)">VCC</text>
  </g>
  <g fill="#000000" fill-opacity="0.000" id="img-aeee7956-61">
    <rect x="216" y="70.5" width="120" height="45"/>
  </g>
  <g fill="#000000" font-family="Helvetica-Bold" font-size="7.06" stroke-width="0" id="img-aeee7956-62">
    <text x="276" y="93" text-anchor="middle" dy="0.35em">7483</text>
  </g>
  <g fill="#000000" font-family="Helvetica-Bold" font-size="5.29" stroke-width="0" id="img-aeee7956-63">
    <text x="328.5" y="114" text-anchor="end" dy="0.35em" transform="rotate(90, 328.5, 114)">A2</text>
    <text x="313.5" y="114" text-anchor="end" dy="0.35em" transform="rotate(90, 313.5, 114)">B2</text>
    <text x="298.5" y="114" text-anchor="end" dy="0.35em" transform="rotate(90, 298.5, 114)">Q2</text>
    <text x="283.5" y="114" text-anchor="end" dy="0.35em" transform="rotate(90, 283.5, 114)">VCC</text>
    <text x="268.5" y="114" text-anchor="end" dy="0.35em" transform="rotate(90, 268.5, 114)">B3</text>
    <text x="253.5" y="114" text-anchor="end" dy="0.35em" transform="rotate(90, 253.5, 114)">A3</text>
    <text x="238.5" y="114" text-anchor="end" dy="0.35em" transform="rotate(90, 238.5, 114)">Q3</text>
    <text x="223.5" y="114" text-anchor="end" dy="0.35em" transform="rotate(90, 223.5, 114)">A4</text>
    <text x="328.5" y="72" dy="0.35em" transform="rotate(90, 328.5, 72)">Q1</text>
    <text x="313.5" y="72" dy="0.35em" transform="rotate(90, 313.5, 72)">A1</text>
    <text x="298.5" y="72" dy="0.35em" transform="rotate(90, 298.5, 72)">B1</text>
    <text x="283.5" y="72" dy="0.35em" transform="rotate(90, 283.5, 72)">GND</text>
    <text x="268.5" y="72" dy="0.35em" transform="rotate(90, 268.5, 72)">C0</text>
    <text x="253.5" y="72" dy="0.35em" transform="rotate(90, 253.5, 72)">C4</text>
    <text x="238.5" y="72" dy="0.35em" transform="rotate(90, 238.5, 72)">Q4</text>
    <text x="223.5" y="72" dy="0.35em" transform="rotate(90, 223.5, 72)">B4</text>
  </g>
  <g fill="#000000" fill-opacity="0.000" id="img-aeee7956-64">
    <rect x="375" y="70.5" width="120" height="45"/>
  </g>
  <g fill="#000000" font-family="Helvetica-Bold" font-size="7.06" stroke-width="0" id="img-aeee7956-65">
    <text x="435" y="93" text-anchor="middle" dy="0.35em">7496</text>
  </g>
  <g fill="#000000" font-family="Helvetica-Bold" font-size="5.29" stroke-width="0" id="img-aeee7956-66">
    <text x="487.5" y="114" text-anchor="end" dy="0.35em" transform="rotate(90, 487.5, 114)">PRE</text>
    <text x="472.5" y="114" text-anchor="end" dy="0.35em" transform="rotate(90, 472.5, 114)">E</text>
    <text x="457.5" y="114" text-anchor="end" dy="0.35em" transform="rotate(90, 457.5, 114)">D</text>
    <text x="442.5" y="114" text-anchor="end" dy="0.35em" transform="rotate(90, 442.5, 114)">VCC</text>
    <text x="427.5" y="114" text-anchor="end" dy="0.35em" transform="rotate(90, 427.5, 114)">C</text>
    <text x="412.5" y="114" text-anchor="end" dy="0.35em" transform="rotate(90, 412.5, 114)">B</text>
    <text x="397.5" y="114" text-anchor="end" dy="0.35em" transform="rotate(90, 397.5, 114)">A</text>
    <text x="382.5" y="114" text-anchor="end" dy="0.35em" transform="rotate(90, 382.5, 114)">CLK</text>
    <text x="487.5" y="72" dy="0.35em" transform="rotate(90, 487.5, 72)">SER</text>
    <text x="472.5" y="72" dy="0.35em" transform="rotate(90, 472.5, 72)">QE</text>
    <text x="457.5" y="72" dy="0.35em" transform="rotate(90, 457.5, 72)">QD</text>
    <text x="442.5" y="72" dy="0.35em" transform="rotate(90, 442.5, 72)">GND</text>
    <text x="427.5" y="72" dy="0.35em" transform="rotate(90, 427.5, 72)">QC</text>
    <text x="412.5" y="72" dy="0.35em" transform="rotate(90, 412.5, 72)">QB</text>
    <text x="397.5" y="72" dy="0.35em" transform="rotate(90, 397.5, 72)">QA</text>
    <text x="382.5" y="72" dy="0.35em" transform="rotate(90, 382.5, 72)">CLR</text>
  </g>
  <g fill="#000000" fill-opacity="0.000" id="img-aeee7956-67">
    <rect x="109.5" y="190.5" width="120" height="45"/>
  </g>
  <g fill="#000000" font-family="Helvetica-Bold" font-size="7.06" stroke-width="0" id="img-aeee7956-68">
    <text x="169.5" y="213" text-anchor="middle" dy="0.35em">7496</text>
  </g>
  <g fill="#000000" font-family="Helvetica-Bold" font-size="5.29" stroke-width="0" id="img-aeee7956-69">
    <text x="222" y="234" text-anchor="end" dy="0.35em" transform="rotate(90, 222, 234)">PRE</text>
    <text x="207" y="234" text-anchor="end" dy="0.35em" transform="rotate(90, 207, 234)">E</text>
    <text x="192" y="234" text-anchor="end" dy="0.35em" transform="rotate(90, 192, 234)">D</text>
    <text x="177" y="234" text-anchor="end" dy="0.35em" transform="rotate(90, 177, 234)">VCC</text>
    <text x="162" y="234" text-anchor="end" dy="0.35em" transform="rotate(90, 162, 234)">C</text>
    <text x="147" y="234" text-anchor="end" dy="0.35em" transform="rotate(90, 147, 234)">B</text>
    <text x="132" y="234" text-anchor="end" dy="0.35em" transform="rotate(90, 132, 234)">A</text>
    <text x="117" y="234" text-anchor="end" dy="0.35em" transform="rotate(90, 117, 234)">CLK</text>
    <text x="222" y="192" dy="0.35em" transform="rotate(90, 222, 192)">SER</text>
    <text x="207" y="192" dy="0.35em" transform="rotate(90, 207, 192)">QE</text>
    <text x="192" y="192" dy="0.35em" transform="rotate(90, 192, 192)">QD</text>
    <text x="177" y="192" dy="0.35em" transform="rotate(90, 177, 192)">GND</text>
    <text x="162" y="192" dy="0.35em" transform="rotate(90, 162, 192)">QC</text>
    <text x="147" y="192" dy="0.35em" transform="rotate(90, 147, 192)">QB</text>
    <text x="132" y="192" dy="0.35em" transform="rotate(90, 132, 192)">QA</text>
    <text x="117" y="192" dy="0.35em" transform="rotate(90, 117, 192)">CLR</text>
  </g>
  <g fill="#000000" fill-opacity="0.000" id="img-aeee7956-70">
    <rect x="60" y="58.5" width="120" height="45"/>
  </g>
  <g fill="#000000" font-family="Helvetica-Bold" font-size="7.06" stroke-width="0" id="img-aeee7956-71">
    <text x="120" y="81" text-anchor="middle" dy="0.35em">7496</text>
  </g>
  <g fill="#000000" font-family="Helvetica-Bold" font-size="5.29" stroke-width="0" id="img-aeee7956-72">
    <text x="172.5" y="102" text-anchor="end" dy="0.35em" transform="rotate(90, 172.5, 102)">PRE</text>
    <text x="157.5" y="102" text-anchor="end" dy="0.35em" transform="rotate(90, 157.5, 102)">E</text>
    <text x="142.5" y="102" text-anchor="end" dy="0.35em" transform="rotate(90, 142.5, 102)">D</text>
    <text x="127.5" y="102" text-anchor="end" dy="0.35em" transform="rotate(90, 127.5, 102)">VCC</text>
    <text x="112.5" y="102" text-anchor="end" dy="0.35em" transform="rotate(90, 112.5, 102)">C</text>
    <text x="97.5" y="102" text-anchor="end" dy="0.35em" transform="rotate(90, 97.5, 102)">B</text>
    <text x="82.5" y="102" text-anchor="end" dy="0.35em" transform="rotate(90, 82.5, 102)">A</text>
    <text x="67.5" y="102" text-anchor="end" dy="0.35em" transform="rotate(90, 67.5, 102)">CLK</text>
    <text x="172.5" y="60" dy="0.35em" transform="rotate(90, 172.5, 60)">SER</text>
    <text x="157.5" y="60" dy="0.35em" transform="rotate(90, 157.5, 60)">QE</text>
    <text x="142.5" y="60" dy="0.35em" transform="rotate(90, 142.5, 60)">QD</text>
    <text x="127.5" y="60" dy="0.35em" transform="rotate(90, 127.5, 60)">GND</text>
    <text x="112.5" y="60" dy="0.35em" transform="rotate(90, 112.5, 60)">QC</text>
    <text x="97.5" y="60" dy="0.35em" transform="rotate(90, 97.5, 60)">QB</text>
    <text x="82.5" y="60" dy="0.35em" transform="rotate(90, 82.5, 60)">QA</text>
    <text x="67.5" y="60" dy="0.35em" transform="rotate(90, 67.5, 60)">CLR</text>
  </g>
</g>
<defs>
  <g id="img-aeee7956-5">
    <circle cx="0" cy="0" r="3"/>
  </g>
  <g id="img-aeee7956-10">
    <circle cx="0" cy="0" r="3"/>
  </g>
  <g id="img-aeee7956-11">
    <circle cx="0" cy="0" r="3"/>
  </g>
  <g id="img-aeee7956-12">
    <circle cx="0" cy="0" r="3"/>
  </g>
  <g id="img-aeee7956-13">
    <circle cx="0" cy="0" r="3"/>
  </g>
  <g id="img-aeee7956-14">
    <circle cx="0" cy="0" r="3"/>
  </g>
  <g id="img-aeee7956-18">
    <circle cx="0" cy="0" r="3"/>
  </g>
  <g id="img-aeee7956-19">
    <circle cx="0" cy="0" r="3"/>
  </g>
  <g id="img-aeee7956-20">
    <circle cx="0" cy="0" r="3"/>
  </g>
  <g id="img-aeee7956-21">
    <circle cx="0" cy="0" r="3"/>
  </g>
  <g id="img-aeee7956-22">
    <circle cx="0" cy="0" r="3"/>
  </g>
  <g id="img-aeee7956-23">
    <circle cx="0" cy="0" r="3"/>
  </g>
  <g id="img-aeee7956-24">
    <circle cx="0" cy="0" r="3"/>
  </g>
  <g id="img-aeee7956-25">
    <circle cx="0" cy="0" r="3"/>
  </g>
  <g id="img-aeee7956-28">
    <circle cx="0" cy="0" r="3"/>
  </g>
  <g id="img-aeee7956-29">
    <circle cx="0" cy="0" r="3"/>
  </g>
  <g id="img-aeee7956-30">
    <circle cx="0" cy="0" r="3"/>
  </g>
  <g id="img-aeee7956-31">
    <circle cx="0" cy="0" r="3"/>
  </g>
  <g id="img-aeee7956-32">
    <circle cx="0" cy="0" r="3"/>
  </g>
  <g id="img-aeee7956-33">
    <circle cx="0" cy="0" r="3"/>
  </g>
  <g id="img-aeee7956-34">
    <circle cx="0" cy="0" r="3"/>
  </g>
  <g id="img-aeee7956-35">
    <circle cx="0" cy="0" r="3"/>
  </g>
  <g id="img-aeee7956-36">
    <circle cx="0" cy="0" r="3"/>
  </g>
  <g id="img-aeee7956-37">
    <circle cx="0" cy="0" r="3"/>
  </g>
  <g id="img-aeee7956-40">
    <circle cx="0" cy="0" r="3"/>
  </g>
  <g id="img-aeee7956-41">
    <circle cx="0" cy="0" r="3"/>
  </g>
  <g id="img-aeee7956-42">
    <circle cx="0" cy="0" r="3"/>
  </g>
  <g id="img-aeee7956-43">
    <circle cx="0" cy="0" r="3"/>
  </g>
  <g id="img-aeee7956-44">
    <circle cx="0" cy="0" r="3"/>
  </g>
  <g id="img-aeee7956-45">
    <circle cx="0" cy="0" r="3"/>
  </g>
  <g id="img-aeee7956-46">
    <circle cx="0" cy="0" r="3"/>
  </g>
  <g id="img-aeee7956-47">
    <circle cx="0" cy="0" r="3"/>
  </g>
  <g id="img-aeee7956-48">
    <circle cx="0" cy="0" r="3"/>
  </g>
  <g id="img-aeee7956-49">
    <circle cx="0" cy="0" r="3"/>
  </g>
  <g id="img-aeee7956-52">
    <circle cx="0" cy="0" r="3"/>
  </g>
  <g id="img-aeee7956-53">
    <circle cx="0" cy="0" r="3"/>
  </g>
  <g id="img-aeee7956-54">
    <circle cx="0" cy="0" r="3"/>
  </g>
  <g id="img-aeee7956-55">
    <circle cx="0" cy="0" r="3"/>
  </g>
  <g id="img-aeee7956-56">
    <circle cx="0" cy="0" r="3"/>
  </g>
  <g id="img-aeee7956-57">
    <circle cx="0" cy="0" r="3"/>
  </g>
</defs>
</svg>
