<?xml version="1.0" encoding="UTF-8"?>
<svg xmlns="http://www.w3.org/2000/svg"
     xmlns:xlink="http://www.w3.org/1999/xlink"
     version="1.2"
     width="210mm" height="120mm" viewBox="0 0 210 120"
     stroke="none"
     fill="#000000"
     stroke-width="0.3"
     font-size="3.88"
>
<g stroke-width="2" stroke="#000000" id="img-f314869e-1">
  <path fill="none" d="M60,30 L 45 30 45 90 60 90"/>
  <path fill="none" d="M120,84 L 105 84 105 75 165 45 165 30 156 30"/>
  <path fill="none" d="M120,36 L 105 36 105 45 165 75 165 90 156 90"/>
  <path fill="none" d="M120,96 L 96 96"/>
  <path fill="none" d="M120,24 L 96 24"/>
  <path fill="none" d="M45,60 L 30 60"/>
  <path fill="none" d="M60,102 L 30 102"/>
  <path fill="none" d="M60,18 L 30 18"/>
  <path fill="none" d="M156,90 L 180 90"/>
  <path fill="none" d="M156,30 L 180 30"/>
  <g font-family="Helvetica-Bold" font-size="14.11" stroke-width="0" id="img-f314869e-2">
    <text x="195" y="90" text-anchor="middle" dy="0.35em">~Q</text>
    <text x="195" y="30" text-anchor="middle" dy="0.35em">Q</text>
    <text x="15" y="60" text-anchor="middle" dy="0.35em">C</text>
    <text x="15" y="102" text-anchor="middle" dy="0.35em">R</text>
    <text x="15" y="18" text-anchor="middle" dy="0.35em">S</text>
  </g>
  <g stroke-width="0" fill="#000000" id="img-f314869e-3">
    <use xlink:href="#img-f314869e-4" x="45" y="60"/>
    <use xlink:href="#img-f314869e-5" x="165" y="90"/>
    <use xlink:href="#img-f314869e-6" x="165" y="30"/>
  </g>
  <g fill="#000000" fill-opacity="0.000" id="img-f314869e-7">
    <use xlink:href="#img-f314869e-8" x="93" y="96"/>
  </g>
  <path fill="none" d="M75,108 C95,108 95,84 75,84 "/>
  <path fill="none" d="M75.02,108 L 60 108 60 84 75.02 84"/>
  <g fill="#000000" fill-opacity="0.000" id="img-f314869e-9">
    <use xlink:href="#img-f314869e-10" x="93" y="24"/>
  </g>
  <path fill="none" d="M75,36 C95,36 95,12 75,12 "/>
  <path fill="none" d="M75.02,36 L 60 36 60 12 75.02 12"/>
  <g fill="#000000" fill-opacity="0.000" id="img-f314869e-11">
    <use xlink:href="#img-f314869e-12" x="153" y="90"/>
  </g>
  <path fill="none" d="M135,102 C155,102 155,78 135,78 "/>
  <path fill="none" d="M135.01,102 L 120 102 120 78 135.01 78"/>
  <g fill="#000000" fill-opacity="0.000" id="img-f314869e-13">
    <use xlink:href="#img-f314869e-14" x="153" y="30"/>
  </g>
  <path fill="none" d="M135,42 C155,42 155,18 135,18 "/>
  <path fill="none" d="M135.01,42 L 120 42 120 18 135.01 18"/>
</g>
<defs>
  <g id="img-f314869e-4">
    <circle cx="0" cy="0" r="3"/>
  </g>
  <g id="img-f314869e-5">
    <circle cx="0" cy="0" r="3"/>
  </g>
  <g id="img-f314869e-6">
    <circle cx="0" cy="0" r="3"/>
  </g>
  <g id="img-f314869e-8">
    <circle cx="0" cy="0" r="3"/>
  </g>
  <g id="img-f314869e-10">
    <circle cx="0" cy="0" r="3"/>
  </g>
  <g id="img-f314869e-12">
    <circle cx="0" cy="0" r="3"/>
  </g>
  <g id="img-f314869e-14">
    <circle cx="0" cy="0" r="3"/>
  </g>
</defs>
</svg>
