<?xml version="1.0" encoding="UTF-8"?>
<svg xmlns="http://www.w3.org/2000/svg"
     xmlns:xlink="http://www.w3.org/1999/xlink"
     version="1.2"
     width="330mm" height="219mm" viewBox="0 0 330 219"
     stroke="none"
     fill="#000000"
     stroke-width="0.3"
     font-size="3.88"
>
<g stroke-width="2" stroke="#000000" id="img-3a02913d-1">
  <g stroke-width="0" font-family="Helvetica-Bold" font-size="7.06" id="img-3a02913d-2">
    <text x="276" y="39" text-anchor="middle">OUT4</text>
    <text x="228" y="39" text-anchor="middle">OUT3</text>
    <text x="90" y="39" text-anchor="middle">OUT2</text>
    <text x="66" y="39" text-anchor="middle">OUT1</text>
    <text x="27" y="201" text-anchor="end" dy="0.35em">CLK</text>
    <text x="27" y="189" text-anchor="end" dy="0.35em">CLR</text>
  </g>
  <g stroke="#FFA500" id="img-3a02913d-3">
    <path fill="none" d="M277.5,121.5 L 277.5 45"/>
    <path fill="none" d="M217.5,99 L 228 99 228 45"/>
    <path fill="none" d="M127.5,75 L 90 75 90 45"/>
    <path fill="none" d="M67.5,121.5 L 67.5 45"/>
    <g stroke-width="0" fill="#000000" id="img-3a02913d-4">
      <use xlink:href="#img-3a02913d-5" x="67.5" y="111"/>
      <use xlink:href="#img-3a02913d-6" x="217.5" y="99"/>
      <use xlink:href="#img-3a02913d-7" x="127.5" y="75"/>
    </g>
    <g stroke-width="0" fill="#FFA500" id="img-3a02913d-8">
      <use xlink:href="#img-3a02913d-9" x="277.5" y="45"/>
      <use xlink:href="#img-3a02913d-10" x="228" y="45"/>
      <use xlink:href="#img-3a02913d-11" x="90" y="45"/>
      <use xlink:href="#img-3a02913d-12" x="67.5" y="45"/>
    </g>
  </g>
  <g stroke="#000000" id="img-3a02913d-13">
    <path fill="none" d="M262.5,121.5 L 262.5 75"/>
    <path fill="none" d="M187.5,64.5 L 187.5 75 307.5 75 307.5 121.5"/>
    <path fill="none" d="M157.5,64.5 L 157.5 99 217.5 99 217.5 121.5"/>
    <g stroke-width="0" fill="#000000" id="img-3a02913d-14">
      <use xlink:href="#img-3a02913d-15" x="262.5" y="75"/>
    </g>
  </g>
  <g stroke="#000000" id="img-3a02913d-16">
    <path fill="none" d="M174,111 L 202.5 111 202.5 121.5"/>
    <path fill="none" d="M172.5,64.5 L 174 177 247.5 177 247.5 166.5"/>
    <path fill="none" d="M142.5,64.5 L 142.5 75 172.5 75 172.5 64.5"/>
    <g stroke-width="0" fill="#000000" id="img-3a02913d-17">
      <use xlink:href="#img-3a02913d-18" x="174" y="111"/>
      <use xlink:href="#img-3a02913d-19" x="172.5" y="75"/>
    </g>
  </g>
  <g stroke="#000000" id="img-3a02913d-20">
    <path fill="none" d="M127.5,121.5 L 127.5 64.5"/>
    <path fill="none" d="M112.5,121.5 L 112.5 64.5"/>
    <path fill="none" d="M67.5,121.5 L 67.5 111 157.5 111 157.5 121.5"/>
    <g stroke-width="0" fill="#000000" id="img-3a02913d-21">
      <use xlink:href="#img-3a02913d-22" x="112.5" y="111"/>
    </g>
  </g>
  <g stroke="#008B8B" id="img-3a02913d-23">
    <path fill="none" d="M277.5,166.5 L 277.5 201 30 201"/>
    <path fill="none" d="M202.5,166.5 L 202.5 201"/>
    <path fill="none" d="M127.5,166.5 L 127.5 201"/>
    <path fill="none" d="M52.5,166.5 L 52.5 201"/>
    <g stroke-width="0" fill="#008B8B" id="img-3a02913d-24">
      <use xlink:href="#img-3a02913d-25" x="202.5" y="201"/>
      <use xlink:href="#img-3a02913d-26" x="127.5" y="201"/>
      <use xlink:href="#img-3a02913d-27" x="52.5" y="201"/>
    </g>
  </g>
  <g stroke="#006400" id="img-3a02913d-28">
    <path fill="none" d="M307.5,166.5 L 307.5 189 30 189"/>
    <path fill="none" d="M232.5,166.5 L 232.5 189"/>
    <path fill="none" d="M157.5,166.5 L 157.5 189"/>
    <path fill="none" d="M82.5,166.5 L 82.5 189"/>
    <g stroke-width="0" fill="#006400" id="img-3a02913d-29">
      <use xlink:href="#img-3a02913d-30" x="232.5" y="189"/>
      <use xlink:href="#img-3a02913d-31" x="157.5" y="189"/>
      <use xlink:href="#img-3a02913d-32" x="82.5" y="189"/>
    </g>
  </g>
  <g stroke="#00008B" id="img-3a02913d-33">
    <path fill="none" d="M202.5,64.5 L 202.5 87"/>
    <path fill="none" d="M247.5,121.5 L 247.5 87"/>
    <path fill="none" d="M97.5,121.5 L 97.5 87"/>
    <path fill="none" d="M0,87 L 330 87"/>
    <g stroke-width="0" fill="#00008B" id="img-3a02913d-34">
      <use xlink:href="#img-3a02913d-35" x="202.5" y="87"/>
      <use xlink:href="#img-3a02913d-36" x="247.5" y="87"/>
      <use xlink:href="#img-3a02913d-37" x="97.5" y="87"/>
    </g>
  </g>
  <g stroke="#8B0000" id="img-3a02913d-38">
    <path fill="none" d="M52.5,121.5 L 52.5 6"/>
    <path fill="none" d="M97.5,166.5 L 97.5 213"/>
    <path fill="none" d="M292.5,166.5 L 292.5 213"/>
    <path fill="none" d="M217.5,166.5 L 217.5 213"/>
    <path fill="none" d="M142.5,166.5 L 142.5 213"/>
    <path fill="none" d="M67.5,166.5 L 67.5 213"/>
    <path fill="none" d="M112.5,166.5 L 112.5 213"/>
    <path fill="none" d="M262.5,166.5 L 262.5 213"/>
    <path fill="none" d="M0,213 L 330 213"/>
    <path fill="none" d="M112.5,19.5 L 112.5 6"/>
    <path fill="none" d="M0,6 L 330 6"/>
    <g stroke-width="0" fill="#8B0000" id="img-3a02913d-39">
      <use xlink:href="#img-3a02913d-40" x="52.5" y="6"/>
      <use xlink:href="#img-3a02913d-41" x="97.5" y="213"/>
      <use xlink:href="#img-3a02913d-42" x="292.5" y="213"/>
      <use xlink:href="#img-3a02913d-43" x="217.5" y="213"/>
      <use xlink:href="#img-3a02913d-44" x="142.5" y="213"/>
      <use xlink:href="#img-3a02913d-45" x="67.5" y="213"/>
      <use xlink:href="#img-3a02913d-46" x="112.5" y="6"/>
      <use xlink:href="#img-3a02913d-47" x="262.5" y="213"/>
      <use xlink:href="#img-3a02913d-48" x="112.5" y="213"/>
    </g>
  </g>
  <g fill="#000000" fill-opacity="0.000" id="img-3a02913d-49">
    <rect x="105" y="19.5" width="105" height="45"/>
  </g>
  <g fill="#000000" font-family="Helvetica-Bold" font-size="7.06" stroke-width="0" id="img-3a02913d-50">
    <text x="157.5" y="42" text-anchor="middle" dy="0.35em">7408</text>
  </g>
  <g fill="#000000" font-family="Helvetica-Bold" font-size="5.29" stroke-width="0" id="img-3a02913d-51">
    <text x="202.5" y="63" text-anchor="end" dy="0.35em" transform="rotate(90, 202.5, 63)">GND</text>
    <text x="187.5" y="63" text-anchor="end" dy="0.35em" transform="rotate(90, 187.5, 63)">Y2</text>
    <text x="172.5" y="63" text-anchor="end" dy="0.35em" transform="rotate(90, 172.5, 63)">B2</text>
    <text x="157.5" y="63" text-anchor="end" dy="0.35em" transform="rotate(90, 157.5, 63)">A2</text>
    <text x="142.5" y="63" text-anchor="end" dy="0.35em" transform="rotate(90, 142.5, 63)">Y1</text>
    <text x="127.5" y="63" text-anchor="end" dy="0.35em" transform="rotate(90, 127.5, 63)">B1</text>
    <text x="112.5" y="63" text-anchor="end" dy="0.35em" transform="rotate(90, 112.5, 63)">A1</text>
    <text x="202.5" y="21" dy="0.35em" transform="rotate(90, 202.5, 21)">Y3</text>
    <text x="187.5" y="21" dy="0.35em" transform="rotate(90, 187.5, 21)">A3</text>
    <text x="172.5" y="21" dy="0.35em" transform="rotate(90, 172.5, 21)">B3</text>
    <text x="157.5" y="21" dy="0.35em" transform="rotate(90, 157.5, 21)">Y4</text>
    <text x="142.5" y="21" dy="0.35em" transform="rotate(90, 142.5, 21)">A4</text>
    <text x="127.5" y="21" dy="0.35em" transform="rotate(90, 127.5, 21)">B4</text>
    <text x="112.5" y="21" dy="0.35em" transform="rotate(90, 112.5, 21)">VCC</text>
  </g>
  <g fill="#000000" fill-opacity="0.000" id="img-3a02913d-52">
    <rect x="195" y="121.5" width="120" height="45"/>
  </g>
  <g fill="#000000" font-family="Helvetica-Bold" font-size="7.06" stroke-width="0" id="img-3a02913d-53">
    <text x="255" y="144" text-anchor="middle" dy="0.35em">7476</text>
  </g>
  <g fill="#000000" font-family="Helvetica-Bold" font-size="5.29" stroke-width="0" id="img-3a02913d-54">
    <text x="307.5" y="165" text-anchor="end" dy="0.35em" transform="rotate(90, 307.5, 165)">CLR2</text>
    <text x="292.5" y="165" text-anchor="end" dy="0.35em" transform="rotate(90, 292.5, 165)">PRE2</text>
    <text x="277.5" y="165" text-anchor="end" dy="0.35em" transform="rotate(90, 277.5, 165)">CLK2</text>
    <text x="262.5" y="165" text-anchor="end" dy="0.35em" transform="rotate(90, 262.5, 165)">VCC</text>
    <text x="247.5" y="165" text-anchor="end" dy="0.35em" transform="rotate(90, 247.5, 165)">J1</text>
    <text x="232.5" y="165" text-anchor="end" dy="0.35em" transform="rotate(90, 232.5, 165)">CLR1</text>
    <text x="217.5" y="165" text-anchor="end" dy="0.35em" transform="rotate(90, 217.5, 165)">PRE1</text>
    <text x="202.5" y="165" text-anchor="end" dy="0.35em" transform="rotate(90, 202.5, 165)">CLK1</text>
    <text x="307.5" y="123" dy="0.35em" transform="rotate(90, 307.5, 123)">J2</text>
    <text x="292.5" y="123" dy="0.35em" transform="rotate(90, 292.5, 123)">~Q2</text>
    <text x="277.5" y="123" dy="0.35em" transform="rotate(90, 277.5, 123)">Q2</text>
    <text x="262.5" y="123" dy="0.35em" transform="rotate(90, 262.5, 123)">K2</text>
    <text x="247.5" y="123" dy="0.35em" transform="rotate(90, 247.5, 123)">GND</text>
    <text x="232.5" y="123" dy="0.35em" transform="rotate(90, 232.5, 123)">~Q1</text>
    <text x="217.5" y="123" dy="0.35em" transform="rotate(90, 217.5, 123)">Q1</text>
    <text x="202.5" y="123" dy="0.35em" transform="rotate(90, 202.5, 123)">K1</text>
  </g>
  <g fill="#000000" fill-opacity="0.000" id="img-3a02913d-55">
    <rect x="45" y="121.5" width="120" height="45"/>
  </g>
  <g fill="#000000" font-family="Helvetica-Bold" font-size="7.06" stroke-width="0" id="img-3a02913d-56">
    <text x="105" y="144" text-anchor="middle" dy="0.35em">7476</text>
  </g>
  <g fill="#000000" font-family="Helvetica-Bold" font-size="5.29" stroke-width="0" id="img-3a02913d-57">
    <text x="157.5" y="165" text-anchor="end" dy="0.35em" transform="rotate(90, 157.5, 165)">CLR2</text>
    <text x="142.5" y="165" text-anchor="end" dy="0.35em" transform="rotate(90, 142.5, 165)">PRE2</text>
    <text x="127.5" y="165" text-anchor="end" dy="0.35em" transform="rotate(90, 127.5, 165)">CLK2</text>
    <text x="112.5" y="165" text-anchor="end" dy="0.35em" transform="rotate(90, 112.5, 165)">VCC</text>
    <text x="97.5" y="165" text-anchor="end" dy="0.35em" transform="rotate(90, 97.5, 165)">J1</text>
    <text x="82.5" y="165" text-anchor="end" dy="0.35em" transform="rotate(90, 82.5, 165)">CLR1</text>
    <text x="67.5" y="165" text-anchor="end" dy="0.35em" transform="rotate(90, 67.5, 165)">PRE1</text>
    <text x="52.5" y="165" text-anchor="end" dy="0.35em" transform="rotate(90, 52.5, 165)">CLK1</text>
    <text x="157.5" y="123" dy="0.35em" transform="rotate(90, 157.5, 123)">J2</text>
    <text x="142.5" y="123" dy="0.35em" transform="rotate(90, 142.5, 123)">~Q2</text>
    <text x="127.5" y="123" dy="0.35em" transform="rotate(90, 127.5, 123)">Q2</text>
    <text x="112.5" y="123" dy="0.35em" transform="rotate(90, 112.5, 123)">K2</text>
    <text x="97.5" y="123" dy="0.35em" transform="rotate(90, 97.5, 123)">GND</text>
    <text x="82.5" y="123" dy="0.35em" transform="rotate(90, 82.5, 123)">~Q1</text>
    <text x="67.5" y="123" dy="0.35em" transform="rotate(90, 67.5, 123)">Q1</text>
    <text x="52.5" y="123" dy="0.35em" transform="rotate(90, 52.5, 123)">K1</text>
  </g>
</g>
<defs>
  <g id="img-3a02913d-5">
    <circle cx="0" cy="0" r="3"/>
  </g>
  <g id="img-3a02913d-6">
    <circle cx="0" cy="0" r="3"/>
  </g>
  <g id="img-3a02913d-7">
    <circle cx="0" cy="0" r="3"/>
  </g>
  <g id="img-3a02913d-9">
    <circle cx="0" cy="0" r="3"/>
  </g>
  <g id="img-3a02913d-10">
    <circle cx="0" cy="0" r="3"/>
  </g>
  <g id="img-3a02913d-11">
    <circle cx="0" cy="0" r="3"/>
  </g>
  <g id="img-3a02913d-12">
    <circle cx="0" cy="0" r="3"/>
  </g>
  <g id="img-3a02913d-15">
    <circle cx="0" cy="0" r="3"/>
  </g>
  <g id="img-3a02913d-18">
    <circle cx="0" cy="0" r="3"/>
  </g>
  <g id="img-3a02913d-19">
    <circle cx="0" cy="0" r="3"/>
  </g>
  <g id="img-3a02913d-22">
    <circle cx="0" cy="0" r="3"/>
  </g>
  <g id="img-3a02913d-25">
    <circle cx="0" cy="0" r="3"/>
  </g>
  <g id="img-3a02913d-26">
    <circle cx="0" cy="0" r="3"/>
  </g>
  <g id="img-3a02913d-27">
    <circle cx="0" cy="0" r="3"/>
  </g>
  <g id="img-3a02913d-30">
    <circle cx="0" cy="0" r="3"/>
  </g>
  <g id="img-3a02913d-31">
    <circle cx="0" cy="0" r="3"/>
  </g>
  <g id="img-3a02913d-32">
    <circle cx="0" cy="0" r="3"/>
  </g>
  <g id="img-3a02913d-35">
    <circle cx="0" cy="0" r="3"/>
  </g>
  <g id="img-3a02913d-36">
    <circle cx="0" cy="0" r="3"/>
  </g>
  <g id="img-3a02913d-37">
    <circle cx="0" cy="0" r="3"/>
  </g>
  <g id="img-3a02913d-40">
    <circle cx="0" cy="0" r="3"/>
  </g>
  <g id="img-3a02913d-41">
    <circle cx="0" cy="0" r="3"/>
  </g>
  <g id="img-3a02913d-42">
    <circle cx="0" cy="0" r="3"/>
  </g>
  <g id="img-3a02913d-43">
    <circle cx="0" cy="0" r="3"/>
  </g>
  <g id="img-3a02913d-44">
    <circle cx="0" cy="0" r="3"/>
  </g>
  <g id="img-3a02913d-45">
    <circle cx="0" cy="0" r="3"/>
  </g>
  <g id="img-3a02913d-46">
    <circle cx="0" cy="0" r="3"/>
  </g>
  <g id="img-3a02913d-47">
    <circle cx="0" cy="0" r="3"/>
  </g>
  <g id="img-3a02913d-48">
    <circle cx="0" cy="0" r="3"/>
  </g>
</defs>
</svg>
