<?xml version="1.0" encoding="UTF-8"?>
<svg xmlns="http://www.w3.org/2000/svg"
     xmlns:xlink="http://www.w3.org/1999/xlink"
     version="1.2"
     width="150mm" height="90mm" viewBox="0 0 150 90"
     stroke="none"
     fill="#000000"
     stroke-width="0.3"
     font-size="3.88"
>
<g stroke-width="2" stroke="#000000" id="img-eee652d2-1">
  <path fill="none" d="M60,69 L 45 69 45 60 105 30 105 15 96 15"/>
  <path fill="none" d="M60,21 L 45 21 45 30 105 60 105 75 96 75"/>
  <path fill="none" d="M96,75 L 120 75"/>
  <path fill="none" d="M96,15 L 120 15"/>
  <path fill="none" d="M60,81 L 30 81"/>
  <path fill="none" d="M60,9 L 30 9"/>
  <g font-family="Helvetica-Bold" font-size="14.11" stroke-width="0" id="img-eee652d2-2">
    <text x="135" y="75" text-anchor="middle" dy="0.35em">~Q</text>
    <text x="135" y="15" text-anchor="middle" dy="0.35em">Q</text>
    <text x="15" y="81" text-anchor="middle" dy="0.35em">R</text>
    <text x="15" y="9" text-anchor="middle" dy="0.35em">S</text>
  </g>
  <g stroke-width="0" fill="#000000" id="img-eee652d2-3">
    <use xlink:href="#img-eee652d2-4" x="105" y="75"/>
    <use xlink:href="#img-eee652d2-5" x="105" y="15"/>
  </g>
  <g fill="#000000" fill-opacity="0.000" id="img-eee652d2-6">
    <use xlink:href="#img-eee652d2-7" x="93" y="75"/>
  </g>
  <path fill="none" d="M75,87 C95,87 95,63 75,63 "/>
  <path fill="none" d="M75.02,87 L 60 87 60 63 75.02 63"/>
  <g fill="#000000" fill-opacity="0.000" id="img-eee652d2-8">
    <use xlink:href="#img-eee652d2-9" x="93" y="15"/>
  </g>
  <path fill="none" d="M75,27 C95,27 95,3 75,3 "/>
  <path fill="none" d="M75.02,27 L 60 27 60 3 75.02 3"/>
</g>
<defs>
  <g id="img-eee652d2-4">
    <circle cx="0" cy="0" r="3"/>
  </g>
  <g id="img-eee652d2-5">
    <circle cx="0" cy="0" r="3"/>
  </g>
  <g id="img-eee652d2-7">
    <circle cx="0" cy="0" r="3"/>
  </g>
  <g id="img-eee652d2-9">
    <circle cx="0" cy="0" r="3"/>
  </g>
</defs>
</svg>
