<?xml version="1.0" encoding="UTF-8"?>
<svg xmlns="http://www.w3.org/2000/svg"
     xmlns:xlink="http://www.w3.org/1999/xlink"
     version="1.2"
     width="150mm" height="120mm" viewBox="0 0 150 120"
     stroke="none"
     fill="#000000"
     stroke-width="0.3"
     font-size="3.88"
>
<g stroke-width="2" stroke="#000000" id="img-50a49ab1-1">
  <path fill="none" d="M60,84 L 45 84 45 75 105 45 105 30 96 30"/>
  <path fill="none" d="M60,36 L 45 36 45 45 105 75 105 90 96 90"/>
  <path fill="none" d="M96,90 L 120 90"/>
  <path fill="none" d="M96,30 L 120 30"/>
  <path fill="none" d="M60,96 L 30 96"/>
  <path fill="none" d="M60,24 L 30 24"/>
  <g font-family="Helvetica-Bold" font-size="14.11" stroke-width="0" id="img-50a49ab1-2">
    <text x="135" y="90" text-anchor="middle" dy="0.35em">~Q</text>
    <text x="135" y="30" text-anchor="middle" dy="0.35em">Q</text>
    <text x="15" y="96" text-anchor="middle" dy="0.35em">S</text>
    <text x="15" y="24" text-anchor="middle" dy="0.35em">R</text>
  </g>
  <g stroke-width="0" fill="#000000" id="img-50a49ab1-3">
    <use xlink:href="#img-50a49ab1-4" x="105" y="90"/>
    <use xlink:href="#img-50a49ab1-5" x="105" y="30"/>
  </g>
  <g fill="#000000" fill-opacity="0.000" id="img-50a49ab1-6">
    <use xlink:href="#img-50a49ab1-7" x="93" y="90"/>
  </g>
  <path fill="none" d="M75,102 C95,102 95,78 75,78 "/>
  <path fill="none" d="M75.02,102 L 60 102 60 78 75.02 78"/>
  <g fill="#000000" fill-opacity="0.000" id="img-50a49ab1-8">
    <use xlink:href="#img-50a49ab1-9" x="93" y="30"/>
  </g>
  <path fill="none" d="M75,42 C95,42 95,18 75,18 "/>
  <path fill="none" d="M75.02,42 L 60 42 60 18 75.02 18"/>
</g>
<defs>
  <g id="img-50a49ab1-4">
    <circle cx="0" cy="0" r="3"/>
  </g>
  <g id="img-50a49ab1-5">
    <circle cx="0" cy="0" r="3"/>
  </g>
  <g id="img-50a49ab1-7">
    <circle cx="0" cy="0" r="3"/>
  </g>
  <g id="img-50a49ab1-9">
    <circle cx="0" cy="0" r="3"/>
  </g>
</defs>
</svg>
